# Blender 4.0.2
# www.blender.org
o sm_firewood_1_ccx
v -0.767772 0.400061 -0.230563
v 0.768265 0.369304 -0.203952
v 0.759581 0.002134 -0.433786
v 0.762162 -0.376807 -0.193629
v -0.751744 0.003365 -0.410722
v -0.754907 -0.376512 -0.215202
v -0.759824 0.011616 0.001716
v 0.756886 -0.002584 0.003556
vn -0.0007 0.5007 0.8656
vn 0.0060 0.4730 -0.8811
vn 0.9999 -0.0081 0.0061
vn -0.9997 -0.0169 -0.0192
vn -0.0091 -0.4774 0.8786
vn -0.0007 -0.4979 -0.8672
s 0
f 1//1 7//1 8//1 2//1
f 3//2 5//2 1//2 2//2
f 8//3 4//3 3//3 2//3
f 5//4 6//4 7//4 1//4
f 6//5 4//5 8//5 7//5
f 4//6 6//6 5//6 3//6
