# Blender 4.0.2
# www.blender.org
mtllib sm_house_ccv.mtl
o house_ccv
v -4.000000 -1.000000 1.000000
v -4.000000 -1.000000 -7.000000
v 4.000000 -1.000000 1.000000
v 4.000000 5.000000 1.000000
v 4.000000 -1.000000 -7.000000
v 0.000000 -1.000000 -7.000000
v 1.000000 -1.000000 1.000000
v 3.000000 -1.000000 1.000000
v 3.000000 4.000000 1.000000
v 1.000000 4.000000 1.000000
v -4.000000 5.000000 1.000000
v -4.000000 5.000000 -7.000000
v 4.000000 5.000000 -7.000000
v 0.000000 9.000000 -7.000000
v 0.000000 9.000000 1.000000
v -4.000000 0.000000 1.000000
v -4.000000 0.000000 -7.000000
v 4.000000 0.000000 1.000000
v 4.000000 0.000000 -7.000000
v 3.000000 0.000000 1.000000
v 1.000000 0.000000 1.000000
v 3.000000 -1.152000 2.152000
v 1.000000 -1.152000 2.152000
v 0.000000 -1.000000 1.000000
v -4.000000 -1.000000 1.000000
v -4.000000 -1.000000 -7.000000
v 4.000000 -1.000000 1.000000
v 4.000000 5.000000 1.000000
v 4.000000 -1.000000 -7.000000
v 0.000000 -1.000000 -7.000000
v 1.000000 -1.000000 1.000000
v 3.000000 -1.000000 1.000000
v 3.000000 4.000000 1.000000
v 1.000000 4.000000 1.000000
v -4.000000 5.000000 1.000000
v -4.000000 5.000000 -7.000000
v 4.000000 5.000000 -7.000000
v 0.000000 9.000000 -7.000000
v 0.000000 9.000000 1.000000
v -4.000000 0.000000 1.000000
v -4.000000 0.000000 -7.000000
v 4.000000 0.000000 1.000000
v 4.000000 0.000000 -7.000000
v 3.000000 0.000000 1.000000
v 1.000000 0.000000 1.000000
v 3.000000 -1.152000 2.152000
v 1.000000 -1.152000 2.152000
v 0.000000 -1.000000 1.000000
vn -1.0000 -0.0000 -0.0000
vn -0.0000 -0.0000 -1.0000
vn 1.0000 -0.0000 -0.0000
vn -0.0000 -0.0000 1.0000
vn 0.7071 0.7071 -0.0000
vn -0.7071 0.7071 -0.0000
vn -0.0000 1.0000 -0.0000
vn -0.0000 -0.7071 -0.7071
vn 0.5774 0.5774 0.5774
vn 0.5774 -0.5774 -0.5774
vn -0.7071 -0.7071 -0.0000
vn 0.7071 -0.7071 -0.0000
vn -0.0000 -1.0000 -0.0000
vn -0.0000 0.7071 0.7071
vn -0.5774 -0.5774 -0.5774
vn -0.5774 0.5774 0.5774
vt 0.375000 0.000000
vt 0.625000 0.000000
vt 0.625000 0.250000
vt 0.375000 0.250000
vt 0.375000 0.375000
vt 0.625000 0.375000
vt 0.625000 0.500000
vt 0.375000 0.500000
vt 0.625000 0.750000
vt 0.375000 0.750000
vt 0.375000 0.916667
vt 0.625000 0.916667
vt 0.625000 1.000000
vt 0.375000 1.000000
vt 0.000000 0.000000
vt 0.750000 0.500000
vt 0.750000 0.750000
vt 0.875000 0.500000
vt 0.875000 0.750000
vt 0.625000 0.833333
vt 0.375000 0.833333
vt 0.625000 0.375000
s 0
f 1/1/1 11/2/1 12/3/1 2/4/1
f 6/5/2 14/6/2 13/7/2 5/8/2
f 5/8/3 13/7/3 4/9/3 3/10/3
f 7/11/4 10/12/4 11/13/4 1/14/4
f 10/15/4 9/15/4 15/15/4
f 13/7/5 14/16/5 15/17/5 4/9/5
f 14/16/6 12/18/6 11/19/6 15/17/6
f 3/10/4 4/9/4 9/20/4 8/21/4
f 2/4/2 12/3/2 14/22/2 6/5/2
f 11/13/4 10/12/4 15/12/4
f 9/20/4 4/9/4 15/20/4
f 19/7/7 17/18/7 16/19/7 18/9/7
f 21/15/8 20/15/8 22/15/8 23/15/8
f 20/15/9 22/15/9 3/15/9
f 21/15/10 23/15/10 24/15/10
f 25/1/3 26/4/3 36/3/3 35/2/3
f 30/5/4 29/8/4 37/7/4 38/6/4
f 29/8/1 27/10/1 28/9/1 37/7/1
f 31/11/2 25/14/2 35/13/2 34/12/2
f 34/15/2 39/15/2 33/15/2
f 37/7/11 28/9/11 39/17/11 38/16/11
f 38/16/12 39/17/12 35/19/12 36/18/12
f 27/10/2 32/21/2 33/20/2 28/9/2
f 26/4/4 30/5/4 38/22/4 36/3/4
f 35/13/2 39/12/2 34/12/2
f 33/20/2 39/20/2 28/9/2
f 43/7/13 42/9/13 40/19/13 41/18/13
f 45/15/14 47/15/14 46/15/14 44/15/14
f 44/15/15 27/15/15 46/15/15
f 45/15/16 48/15/16 47/15/16
