# Blender 4.0.2
# www.blender.org
o sm_log_0_ccx
v 0.771316 0.382386 -0.215471
v -0.771316 0.417502 -0.215471
v 0.771316 0.382386 0.215471
v -0.771316 0.417502 0.215471
v 0.771316 0.000000 0.430943
v -0.771316 0.017558 0.430943
v 0.771316 -0.382386 0.215471
v -0.771316 -0.382386 0.215471
v 0.771316 -0.382386 -0.215471
v -0.771316 -0.382386 -0.215471
v 0.771316 0.000000 -0.430943
v -0.771316 0.017558 -0.430943
vn 0.0228 0.9997 -0.0000
vn -0.0027 -0.4825 0.8759
vn -0.0000 -1.0000 -0.0000
vn -1.0000 -0.0000 -0.0000
vn 0.0082 0.4825 -0.8759
vn 1.0000 -0.0000 -0.0000
vn -0.0027 -0.4825 -0.8759
vn 0.0082 0.4825 0.8759
s 0
f 4//1 3//1 1//1 2//1
f 8//2 7//2 5//2 6//2
f 10//3 9//3 7//3 8//3
f 2//4 12//4 10//4 8//4 6//4 4//4
f 2//5 1//5 11//5 12//5
f 3//6 5//6 7//6 9//6 11//6 1//6
f 12//7 11//7 9//7 10//7
f 6//8 5//8 3//8 4//8
