# Blender 4.0.2
# www.blender.org
o plush_ccx
v -0.338301 -0.377469 0.516366
v -0.437720 1.006369 0.098974
v -0.254401 -0.340712 -0.652991
v -0.437720 0.838203 -0.512381
v 0.338301 -0.377469 0.516366
v 0.437720 1.006369 0.098974
v 0.254401 -0.340712 -0.652991
v 0.437720 0.838203 -0.512381
v 0.000000 0.480820 0.661638
vn -0.9928 -0.1137 -0.0384
vn -0.0000 0.1184 -0.9930
vn 0.9928 -0.1137 -0.0384
vn -0.7017 0.1590 0.6945
vn -0.0000 -0.9995 -0.0314
vn -0.0000 0.9642 -0.2652
vn -0.0000 -0.1669 0.9860
vn -0.0000 0.7308 0.6826
vn 0.7017 0.1590 0.6945
s 0
f 1//1 2//1 4//1 3//1
f 3//2 4//2 8//2 7//2
f 7//3 8//3 6//3 5//3
f 2//4 1//4 9//4
f 3//5 7//5 5//5 1//5
f 8//6 4//6 2//6 6//6
f 1//7 5//7 9//7
f 6//8 2//8 9//8
f 5//9 6//9 9//9
