# Blender 4.0.2
# www.blender.org
o wheelbarrow_ccx
v -1.500000 0.000000 3.000000
v -1.500000 0.000000 -2.000000
v 1.500000 0.000000 3.000000
v 1.500000 0.000000 -2.000000
v -1.500000 1.000000 2.000000
v -1.500000 1.000000 -2.000000
v 1.500000 1.000000 2.000000
v 1.500000 1.000000 -2.000000
vn -1.0000 -0.0000 -0.0000
vn -0.0000 -0.0000 -1.0000
vn 1.0000 -0.0000 -0.0000
vn -0.0000 0.7071 0.7071
vn -0.0000 -1.0000 -0.0000
vn -0.0000 1.0000 -0.0000
s 0
f 1//1 5//1 6//1 2//1
f 2//2 6//2 8//2 4//2
f 4//3 8//3 7//3 3//3
f 3//4 7//4 5//4 1//4
f 2//5 4//5 3//5 1//5
f 8//6 6//6 5//6 7//6
